<svg id="レイヤー_1" data-name="レイヤー 1" xmlns="http://www.w3.org/2000/svg" viewBox="0 0 86.51 25"><defs><style>.cls-1{fill:#727171;}</style></defs><title>アートボード 1</title><path class="cls-1" d="M29.85,24.69a.29.29,0,0,1-.3-.3V20.74a.61.61,0,0,0-.61-.61H24.06a.61.61,0,0,0-.61.61v3.65a.29.29,0,0,1-.3.3H20.71a.3.3,0,0,1-.3-.3V9.77a.31.31,0,0,1,.3-.31h2.44a.3.3,0,0,1,.3.31v6.7a.61.61,0,0,0,.61.61h4.88a.61.61,0,0,0,.61-.61V9.77a.3.3,0,0,1,.3-.31h2.44a.3.3,0,0,1,.3.31V24.39a.29.29,0,0,1-.3.3Z"/><path class="cls-1" d="M47.37,24.69a.3.3,0,0,1-.31-.3V20.74a.61.61,0,0,0-.61-.61H41.58a.61.61,0,0,0-.61.61v3.65a.29.29,0,0,1-.3.3H38.23a.3.3,0,0,1-.31-.3V15.25a6.1,6.1,0,0,1,12.19,0v9.14a.3.3,0,0,1-.3.3ZM44,12.21a3,3,0,0,0-3.05,3v1.22a.61.61,0,0,0,.61.61h4.87a.61.61,0,0,0,.61-.61V15.25a3,3,0,0,0-3-3"/><path class="cls-1" d="M78.59,25a7.92,7.92,0,1,1,7.92-7.92A7.93,7.93,0,0,1,78.59,25m0-12.79a4.87,4.87,0,1,0,4.88,4.87,4.87,4.87,0,0,0-4.88-4.87"/><path class="cls-1" d="M7.92,25a7.92,7.92,0,1,1,7.92-7.92A7.93,7.93,0,0,1,7.92,25m0-12.79a4.87,4.87,0,1,0,4.87,4.87,4.87,4.87,0,0,0-4.87-4.87"/><path class="cls-1" d="M59.64,24.69a.3.3,0,0,1-.3-.3v-4a.62.62,0,0,0-.42-.58A6,6,0,0,1,54.68,14V9.77a.3.3,0,0,1,.3-.31h2.44a.3.3,0,0,1,.3.31V14a3.05,3.05,0,1,0,6.1,0V9.77a.31.31,0,0,1,.3-.31h2.44a.3.3,0,0,1,.3.31V14a6.1,6.1,0,0,1-4.07,5.75.62.62,0,0,0-.41.58v4a.29.29,0,0,1-.3.3Z"/><path class="cls-1" d="M11.43,2.06c0,.07,0,.07,0,.17a5.58,5.58,0,0,1-.91,2.1A2.48,2.48,0,0,0,9.85,4a3.85,3.85,0,0,0,.76-1.42,3,3,0,0,0,.16-.67ZM12,.6A3.88,3.88,0,0,0,12,0h.73a4.06,4.06,0,0,0,0,.58V.9H13.9a4.12,4.12,0,0,0,.69,0v.66a6.06,6.06,0,0,0-.68,0H12.66V4.13a5.26,5.26,0,0,0,0,.61H12a4.93,4.93,0,0,0,0-.61V1.51h-1.2a6.16,6.16,0,0,0-.69,0V.87a4.32,4.32,0,0,0,.7,0H12Zm1.86,1.29A2.71,2.71,0,0,0,14,2.5,5,5,0,0,0,14.79,4a3.55,3.55,0,0,0-.62.38,7.55,7.55,0,0,1-.89-2,1.87,1.87,0,0,0-.08-.25Z"/><path class="cls-1" d="M16.77,3.8a5.11,5.11,0,0,0,1.6-.41A3.57,3.57,0,0,0,20,2.07,4.57,4.57,0,0,0,20.53,1a2.67,2.67,0,0,0,.58.53,4.75,4.75,0,0,1-1.72,2.12,5.8,5.8,0,0,1-2.06.81,2,2,0,0,0-.36.09ZM17.23.43a7.38,7.38,0,0,1,1.4,1.05l-.47.59A5.48,5.48,0,0,0,16.78,1Z"/><path class="cls-1" d="M23.73,2.51a6.06,6.06,0,0,0-.68,0V1.88a3.88,3.88,0,0,0,.69,0h1V1h-.66a5.29,5.29,0,0,0-.69,0V.35a3.93,3.93,0,0,0,.7,0h2.47a3.86,3.86,0,0,0,.7,0V1a5.08,5.08,0,0,0-.69,0H25.39v.94h1.5a4.08,4.08,0,0,0,.7,0v.65a6.16,6.16,0,0,0-.69,0H25.39v.86c0,.33,0,.41.14.46a1.41,1.41,0,0,0,.56.07c.2,0,.53,0,.81,0a2.75,2.75,0,0,0,.5-.09l0,.69h-.09l-.44,0c-.24,0-.6,0-.86,0-1.06,0-1.31-.18-1.31-.95V2.51Z"/><path class="cls-1" d="M33.72.43a2.64,2.64,0,0,0-.19.46,6.58,6.58,0,0,1-1.46,2.36,6.85,6.85,0,0,1-1.87,1.3,2.41,2.41,0,0,0-.49-.66,5,5,0,0,0,2.72-2.34A4.59,4.59,0,0,0,33,.17Z"/><path class="cls-1" d="M36.34,4.65a1.13,1.13,0,0,0,0-.22,9.53,9.53,0,0,1-.15-1.72,9.73,9.73,0,0,1,.1-1.43L36.42.5a2.53,2.53,0,0,0,.06-.4v0l.73.08a8.56,8.56,0,0,0-.43,2.71c0,.2,0,.2,0,.29v.2h0l.07-.16A1.84,1.84,0,0,1,36.9,3l.1-.25a.63.63,0,0,0,.07-.17l.45.2A4.54,4.54,0,0,0,37,4.46a1.24,1.24,0,0,0,0,.15ZM37.57,1.1a4.06,4.06,0,0,0,1,.09,3.93,3.93,0,0,0,.49,0V.36A1.51,1.51,0,0,0,39,.1h.68a4.79,4.79,0,0,0,0,.79v.25A4.37,4.37,0,0,0,40.39,1l.12,0h.05l0,.61a.39.39,0,0,0-.16,0l-.75.12v.11c0,.31,0,.32,0,1.23a4.11,4.11,0,0,1,.85.49l.15.09-.26.66a2,2,0,0,0-.4-.35l-.34-.22V3.8a.9.9,0,0,1,0,.3c-.12.32-.5.51-1,.51-.71,0-1.14-.34-1.14-.89s.46-.89,1.12-.89a1.39,1.39,0,0,1,.48.07c0-.13,0-.4,0-1.15h-.49l-.67,0h-.34Zm1.1,2.27c-.35,0-.57.13-.57.35s.2.34.5.34A.53.53,0,0,0,39,3.89a.42.42,0,0,0,.07-.29V3.45A1.21,1.21,0,0,0,38.67,3.37Z"/><path class="cls-1" d="M42.77,3.21A5.92,5.92,0,0,1,44,4.4l-.5.47a5.79,5.79,0,0,0-1.17-1.24Z"/><path class="cls-1" d="M50.86,3.85a1.38,1.38,0,0,1,0,.47.48.48,0,0,1-.5.31,1.64,1.64,0,0,1-1-.39.79.79,0,0,1-.3-.61,1.16,1.16,0,0,1,.47-.8,2.69,2.69,0,0,1,.79-.46V1.54H49.18V.94a3.48,3.48,0,0,0,.65.05h.41V.62a4.67,4.67,0,0,0,0-.62h.67a4.27,4.27,0,0,0,0,.59V.94a5.88,5.88,0,0,0,1-.21l0,.61-.58.09c-.18,0-.28.05-.49.08v.7A3.7,3.7,0,0,1,52,2.06,1.39,1.39,0,0,1,53.5,3.38a1.2,1.2,0,0,1-1.23,1.23.87.87,0,0,1-.88-.6,1.76,1.76,0,0,1-.1-.69,2.35,2.35,0,0,0,.61-.24,1,1,0,0,0,0,.24A1.12,1.12,0,0,0,52,3.8.38.38,0,0,0,52.3,4a.56.56,0,0,0,.55-.6c0-.47-.38-.77-1-.77a3.45,3.45,0,0,0-1,.18ZM50.24,3c-.4.22-.64.46-.64.65a.29.29,0,0,0,.18.25.61.61,0,0,0,.34.12c.1,0,.12,0,.12-.23Zm3-1.09A4.45,4.45,0,0,0,52.16.72l.51-.34a4.65,4.65,0,0,1,1.07,1.11Z"/><path class="cls-1" d="M56.43.47a7.92,7.92,0,0,0,0,.82,10.1,10.1,0,0,0,.1,1.45c.1.56.27.91.44.91s.16-.08.22-.23a4.15,4.15,0,0,0,.29-1,3.26,3.26,0,0,0,.54.49c-.28,1-.59,1.49-1,1.49s-.66-.26-.87-.78A8.12,8.12,0,0,1,55.71.81a1.53,1.53,0,0,0,0-.34ZM59,.71a5.29,5.29,0,0,1,1.22,2.91l-.67.26a5.73,5.73,0,0,0-.34-1.57A5,5,0,0,0,58.43,1Z"/><path class="cls-1" d="M63.47.13a5.33,5.33,0,0,0-.06.73c0,.5,0,1.6,0,2s0,.71.14.87a.84.84,0,0,0,.72.28,1.39,1.39,0,0,0,1.31-.92,3.76,3.76,0,0,0,.25-.91,2.43,2.43,0,0,0,.66.41A3.27,3.27,0,0,1,65.79,4a2,2,0,0,1-1.62.69,1.78,1.78,0,0,1-1-.24c-.37-.25-.53-.66-.53-1.39,0-.28,0-.82,0-2.18,0-.16,0-.28,0-.35s0-.23,0-.37Z"/><path class="cls-1" d="M69.43.47a5.83,5.83,0,0,0,0,.82,10.1,10.1,0,0,0,.1,1.45c.09.56.27.91.44.91s.16-.08.22-.23a4.15,4.15,0,0,0,.29-1,2.9,2.9,0,0,0,.54.49c-.28,1-.6,1.49-1.06,1.49s-.65-.26-.87-.78A8.2,8.2,0,0,1,68.71.81a1.53,1.53,0,0,0,0-.34ZM72,.71a5.44,5.44,0,0,1,1.22,2.91l-.67.26a5.4,5.4,0,0,0-.35-1.57A4.53,4.53,0,0,0,71.42,1Z"/><path class="cls-1" d="M76.66,4A.92.92,0,1,1,75.75,3,.92.92,0,0,1,76.66,4ZM75.25,4a.5.5,0,0,0,.5.5.5.5,0,0,0,0-1A.5.5,0,0,0,75.25,4Z"/></svg>